Coordinates
version=1
nRows=19
nColumns=36
inDegrees=yes

Units are S.I. units (second, meters, Newtons, ...)
If the header above contains a line with 'inDegrees', this indicates whether rotational values are in degrees (yes) or radians (no).

endheader
time	pelvis_tilt	pelvis_list	pelvis_rotation	pelvis_tx	pelvis_ty	pelvis_tz	hip_flexion_r	hip_adduction_r	hip_rotation_r	knee_angle_r	knee_angle_r_beta	ankle_angle_r	subtalar_angle_r	mtp_angle_r	hip_flexion_l	hip_adduction_l	hip_rotation_l	knee_angle_l	knee_angle_l_beta	ankle_angle_l	subtalar_angle_l	mtp_angle_l	lumbar_extension	lumbar_bending	lumbar_rotation	arm_flex_r	arm_add_r	arm_rot_r	elbow_flex_r	pro_sup_r	arm_flex_l	arm_add_l	arm_rot_l	elbow_flex_l	pro_sup_l
      6.46666670	      6.39563972	      3.63221101	     -0.72589522	     -0.16639071	      0.92132466	      0.10851039	      2.98444266	      3.90758759	     -0.40298102	     14.98066201	      0.26146188	     13.39583738	      5.83654285	     -7.49999987	     27.93824114	     -9.55234069	     -5.87962645	      4.07357378	      0.07109727	    -13.59286202	     12.95862605	     -7.49999987	     -9.69645615	      0.21465660	      2.33698501	     39.64364220	      5.87094502	   -293.38972246	    123.12230921	     82.81549835	     41.74381446	      4.34705554	     65.29682695	    122.91569715	     66.36408444
      6.48333330	      5.99702399	      3.63212608	     -0.76849280	     -0.16814899	      0.91693910	      0.10900785	      4.32003923	      3.92204412	     -0.68274192	     16.44436144	      0.28700825	     14.21208324	      5.82273811	     -7.49999987	     28.67646895	     -9.63786381	     -5.78118938	      4.81047065	      0.08395855	    -12.81899943	     12.25335877	     -7.49999987	    -10.13507618	      0.25636033	      2.42161473	     40.37987220	      5.77062433	   -294.05437747	    122.84019607	     87.42908305	     42.56189769	      4.57180528	     65.65244905	    123.08144605	     67.61019163
      6.50000000	      5.39829473	      3.49630661	     -0.49438299	     -0.16953152	      0.91243443	      0.10929157	      5.89452314	      4.10647512	     -0.82995774	     17.90368581	      0.31247827	     14.79729133	      5.21242012	     -7.49999987	     29.68459210	     -9.75297504	     -5.67516258	      5.36001850	      0.09354997	    -12.55646160	     11.51188918	     -7.49999987	    -10.51369753	      0.55576115	      2.15680964	     40.87600767	      5.85582328	   -294.07008009	    122.38376550	     85.93590243	     43.02589076	      4.56451555	     66.00734937	    123.57615636	     67.22858042
      6.51666670	      5.18075093	      3.33094732	     -0.40854354	     -0.17106348	      0.90690679	      0.10820215	      7.15715471	      4.27658751	     -0.78206965	     19.57986489	      0.34173311	     16.02356854	      4.85499639	     -7.49999987	     30.10006834	     -9.89950021	     -5.95070907	      5.37062718	      0.09373513	    -11.61512676	     12.06715835	     -7.49999987	    -11.32022264	      0.83182696	      2.09486332	     41.75409777	      5.80320797	   -294.16780928	    121.93760052	     85.58830350	     43.85455537	      4.65986773	     66.63436832	    123.80976393	     67.45232507
      6.53333330	      4.89641079	      3.14410575	     -0.34086155	     -0.17200601	      0.90186639	      0.10777237	      8.61408070	      4.41227158	     -1.11280995	     21.89591268	      0.38215577	     18.05343816	      4.97440568	     -7.49999987	     30.58873171	    -10.06213794	     -5.22462014	      5.59423667	      0.09763785	    -10.48048070	     12.03232042	     -7.49999987	    -11.97731544	      1.18487311	      1.81097686	     42.33923939	      5.75381194	   -293.88307186	    121.42303755	     85.73448640	     44.34736913	      4.66664150	     66.84640070	    124.03744955	     67.54423534
      6.55000000	      4.40904693	      2.86380800	     -0.10767557	     -0.17372190	      0.89399247	      0.10735483	     10.70626196	      4.80073789	     -0.66031609	     24.76635301	      0.43225440	     19.59640145	      3.96299860	     -7.49999987	     31.49600339	    -10.30718134	     -5.01835851	      5.81444274	      0.10148117	     -9.43884953	     12.32854869	     -7.49999987	    -12.44105168	      1.76175944	      1.23902244	     42.62701822	      6.06857670	   -293.59010032	    121.15827513	     85.09303550	     44.74266685	      4.49784638	     66.96901185	    124.61549280	     67.61788026
      6.56666670	      3.99364647	      2.70018688	      0.14848041	     -0.17649222	      0.88373408	      0.10654987	     13.27506304	      5.06148383	     -0.43209134	     28.72205973	      0.50129451	     21.47381716	      2.99792358	     -7.49999987	     32.63014200	    -10.33604760	     -3.99679043	      6.22972257	      0.10872917	     -8.33005256	     12.03487351	     -7.49999987	    -13.14310616	      1.97633530	      0.85828874	     43.01464513	      6.12411230	   -293.32292745	    121.08994788	     85.63758314	     45.56464197	      4.67807774	     67.33129384	    124.48076787	     68.04835958
      6.58333330	      3.28427058	      2.45136583	      0.62605159	     -0.17760934	      0.87558463	      0.10542529	     16.35787832	      5.45154702	      0.04436328	     32.75497872	      0.57168223	     22.36615992	      1.63243812	     -7.49999987	     34.16594132	    -10.46960759	     -3.40287164	      6.89819648	      0.12039624	     -7.91916025	     11.34514224	     -7.49999987	    -13.23950271	      2.46345570	      0.34028226	     43.15004605	      6.28256220	   -293.02398601	    120.86741201	     86.49200290	     46.12626128	      4.75208679	     67.73412660	    124.66061122	     68.30696942
      6.60000000	      2.49269847	      2.30094451	      1.11811978	     -0.18062902	      0.86756596	      0.10494767	     19.61539858	      5.71680572	      0.42151115	     36.77885576	      0.64191213	     23.17200860	      0.23692125	     -7.49999987	     35.76895098	    -10.48702590	     -3.17640443	      7.58731266	      0.13242359	     -8.26250737	      9.86377654	     -7.49999987	    -13.31592078	      2.80996200	     -0.25932869	     43.43271337	      6.44073380	   -292.71310450	    120.30010923	     84.16786356	     46.55676434	      4.73511889	     67.81690743	    124.61617774	     67.47561684
      6.61666670	      1.64511830	      2.29080415	      1.48945090	     -0.18427876	      0.85962736	      0.10426441	     23.04193773	      5.87174279	      0.83594562	     40.98460766	      0.71531635	     23.51241625	     -0.40348124	     -7.49999987	     37.58517127	    -10.45115507	     -3.37359221	      8.56395609	      0.14946923	     -9.54561011	      7.61747050	     -7.49999987	    -13.44176384	      2.97301252	     -0.63698960	     43.47758317	      6.33327973	   -292.40388126	    120.43673700	     82.35753293	     47.18715959	      4.65749567	     68.48150282	    124.98193091	     66.90650467
      6.63333330	      0.76909918	      2.14447760	      1.75483513	     -0.18995098	      0.85057165	      0.10478197	     26.59093415	      6.23430901	      1.24331768	     44.99529767	      0.78531609	     24.12934727	     -0.90936512	     -7.49999987	     39.41814054	    -10.49305762	     -2.82649899	      8.88959295	      0.15515267	    -11.16817335	      4.80218593	     -7.49999987	    -13.54909895	      3.05550847	     -0.56947228	     43.48795044	      5.89281877	   -292.56808910	    120.99827463	     87.47673055	     48.23621261	      4.93826155	     69.17297687	    124.27195328	     68.31681493
      6.65000000	     -0.05192689	      2.16586427	      1.68067706	     -0.19389870	      0.84192600	      0.10564888	     29.77282056	      6.72015297	      2.03414665	     48.62750721	      0.84871011	     24.74365591	     -1.77087556	     -7.49999987	     41.03495239	    -10.64185343	     -3.09192200	      9.18184370	      0.16025340	    -11.82660890	      3.95934566	     -7.49999987	    -13.84483680	      3.05813758	     -0.89569329	     44.10241063	      6.14699538	   -291.52425365	    120.93521563	     86.67349061	     48.86946996	      4.58262326	     69.56760767	    124.45623619	     67.99665395
      6.66666670	     -0.42336375	      2.08364717	      1.77375131	     -0.19593057	      0.83424623	      0.10514930	     32.18098748	      7.16530689	      2.60689679	     51.62545467	      0.90103416	     25.14463374	     -2.74507350	     -7.49999987	     42.21911504	    -10.81022769	     -3.71361996	      9.38315453	      0.16376694	    -12.86819403	      2.85288611	     -7.49999987	    -14.50311170	      3.23491996	     -1.12047303	     44.64927130	      6.27576413	   -290.66027042	    120.86621448	     87.12934499	     49.72500498	      4.33782249	     69.81624243	    124.17074095	     68.10718209
      6.68333330	     -1.30740126	      1.91910286	      2.03177815	     -0.19924032	      0.82614665	      0.10538956	     34.93156652	      7.68228252	      3.03960241	     54.28538332	      0.94745867	     25.25359237	     -3.65757276	     -7.49999987	     43.98032107	    -10.83808193	     -3.74784981	      9.44370520	      0.16482375	    -14.00879864	      1.46642171	     -7.49999987	    -14.81616720	      3.50318130	     -1.46100986	     45.04952440	      6.37055462	   -289.48888207	    120.91808096	     86.75820776	     50.26137799	      4.03728462	     70.27317147	    124.15440709	     67.90192028
      6.70000000	     -1.73896864	      1.67537589	      2.32311783	     -0.20363597	      0.81701128	      0.10650965	     36.98906366	      8.28416237	      3.27013832	     56.82456972	      0.99177584	     26.06899500	     -4.21782042	     -7.49999987	     45.41046407	    -11.01997660	     -3.88891975	      9.70773836	      0.16943200	    -14.77750046	      0.89892036	     -7.49999987	    -15.62275897	      3.78573442	     -1.67513827	     45.61997491	      6.41402457	   -288.69738532	    120.80973866	     85.99921935	     51.01990518	      3.86196638	     70.41962444	    123.82368016	     67.58798895
      6.71666670	     -2.33554248	      1.47432913	      2.58481388	     -0.20551536	      0.80590102	      0.10634712	     39.27734547	      8.75628696	      3.35072368	     59.30493631	      1.03506640	     27.02164705	     -4.74822897	     -7.49999987	     46.90839935	    -11.09851820	     -3.95843813	      9.74311692	      0.17004947	    -15.63219928	      0.18925725	     -7.49999987	    -16.23601026	      3.95438782	     -1.74927190	     45.90650082	      6.13323912	   -288.71524750	    120.79677679	     90.20851156	     51.70723750	      3.83621281	     70.75869755	    123.29269685	     68.85232687
      6.73333330	     -2.71178281	      1.28362347	      2.82090581	     -0.20935560	      0.79950294	      0.10679405	     40.87310803	      9.27245074	      3.50137058	     61.01859734	      1.06497543	     27.82282578	     -5.49779543	     -7.49999987	     47.99284930	    -11.21742236	     -4.76805101	      9.48133254	      0.16548047	    -16.71426071	      0.26157612	     -7.49999987	    -17.22746555	      4.26422293	     -1.76553987	     46.80312417	      5.96816013	   -288.28078218	    120.52749457	     89.26724014	     52.24360273	      3.64676836	     70.85163710	    123.13859551	     68.44046222
      6.75000000	     -3.08667446	      1.04381356	      2.86932460	     -0.21283519	      0.79294011	      0.10753005	     42.50309854	      9.92361074	      3.77613528	     62.75364455	      1.09525772	     27.98273700	     -6.16828198	     -7.49999987	     48.87479613	    -11.45789306	     -5.28133416	      9.12653560	      0.15928810	    -17.73891634	      0.30068989	     -7.49999987	    -18.33019537	      4.62864891	     -1.62936974	     47.78305423	      5.82611936	   -287.92047823	    119.90856135	     87.77788401	     52.86897511	      3.37739072	     71.03206410	    122.99333085	     67.91840385
      6.76666670	     -2.99225395	      0.99651491	      3.31529207	     -0.21577625	      0.78338014	      0.10767306	     43.73583608	     10.10840052	      3.67295906	     64.73069099	      1.12976368	     28.08891491	     -6.79728078	     -7.49999987	     49.22147513	    -11.30653847	     -6.41732873	      8.34129473	      0.14558306	    -18.91551037	      0.12830088	     -7.49999987	    -19.72958181	      4.89591844	     -1.77754844	     48.39614530	      5.54796037	   -287.96369795	    119.40286378	     86.81908006	     53.90489547	      3.21053199	     71.30036276	    122.56793250	     68.09009748
